<?xml version="1.0" encoding="UTF-8"?><svg id="Ebene_2" xmlns="http://www.w3.org/2000/svg" viewBox="0 0 875.29 299.12"><g id="Ebene_1-2"><path d="M92.93,93.57v-38.11c0-9.56-1.79-17.2-5.35-22.91-3.57-5.71-8.64-9.78-15.2-12.2-6.57-2.43-14.49-3.64-23.77-3.64-16.99,0-29.69,3.78-38.11,11.35-2.71,2.14-4.6,4.32-5.67,6.53-1.07,2.22-1.61,4.39-1.61,6.53,0,3,.96,5.35,2.89,7.07,1.93,1.71,4.46,2.57,7.6,2.57,2.57,0,4.82-.64,6.74-1.93s4.03-2.85,6.32-4.71c2.28-1.85,5.14-3.46,8.56-4.82,3.43-1.36,7.85-2.03,13.28-2.03,5.85,0,10.52,1.11,14.02,3.32,3.5,2.21,5.25,6.25,5.25,12.1v.64c0,2.86-.93,5-2.78,6.42-1.86,1.43-5.78,2.71-11.78,3.86l-20.55,3.64c-10.85,2-19.02,5.5-24.52,10.49-5.5,5-8.24,11.78-8.24,20.34,0,9.56,3.07,17.09,9.21,22.59,6.14,5.5,14.35,8.24,24.62,8.24,8.57,0,16.24-2.14,23.02-6.42,5.28-3.33,9.44-8.11,12.51-14.3.19,3.18.48,6.18.87,8.95.57,4,1.36,7.07,2.36,9.21h25.05c-1.43-3.57-2.57-8.14-3.43-13.7-.86-5.57-1.28-11.92-1.28-19.06ZM55.24,107.48c-3.85,2.14-8.07,3.21-12.63,3.21-4.85,0-8.78-1.32-11.78-3.96-3-2.64-4.5-6.24-4.5-10.81s1.5-8.21,4.5-10.49c3-2.28,6.85-3.86,11.56-4.71l13.27-2.78c3.71-.86,6.46-1.71,8.24-2.57,1.78-.86,3.1-1.71,3.96-2.57v11.13c0,5.43-1.14,10.17-3.43,14.24-2.28,4.07-5.35,7.17-9.21,9.31Z"/><path d="M188.63,80.72c0,8.56-2.03,15.02-6.1,19.38-4.07,4.35-9.89,6.53-17.45,6.53s-13.2-2.18-17.34-6.53c-4.14-4.35-6.21-10.81-6.21-19.38V19.27h-24.84v61.66c0,15.84,4.21,27.8,12.63,35.87,8.42,8.06,20.34,12.1,35.76,12.1s27.51-4.03,35.86-12.1c8.35-8.06,12.53-20.02,12.53-35.87V19.27h-24.84v61.45Z"/><path d="M268.92,0l-32.76,17.56c-3.29,1.71-5.78,3.64-7.49,5.78-1.71,2.14-2.57,4.64-2.57,7.49,0,3.29,1.03,5.85,3.1,7.71,2.07,1.86,4.74,2.78,8.03,2.78h6.85v53.1c0,11.42,2.71,20.02,8.14,25.8,5.42,5.78,13.13,8.67,23.12,8.67,4.14,0,7.99-.39,11.56-1.18,3.57-.79,6.99-1.89,10.28-3.32v-20.34c-2.57.86-5,1.57-7.28,2.14-2.28.57-4.64.86-7.07.86-4.57,0-8.03-1.25-10.38-3.75-2.36-2.5-3.53-6.74-3.53-12.74v-49.25h32.54v-22.05h-32.54V0Z"/><path d="M393.75,23.44c-8.14-4.5-17.63-6.74-28.48-6.74s-21.06,2.39-29.33,7.17c-8.28,4.78-14.67,11.42-19.16,19.91-4.5,8.49-6.75,18.45-6.75,29.87s2.28,21.06,6.85,29.33c4.57,8.28,10.95,14.67,19.16,19.16,8.21,4.5,17.66,6.75,28.37,6.75,11.42,0,21.23-2.39,29.44-7.17,8.21-4.78,14.56-11.45,19.06-20.02,4.5-8.56,6.74-18.48,6.74-29.76s-2.28-21.23-6.85-29.44c-4.57-8.21-10.92-14.56-19.06-19.06ZM389.9,91c-2.57,5.28-6.07,9.35-10.49,12.2-4.43,2.86-9.42,4.28-14.99,4.28s-10.28-1.36-14.56-4.07c-4.28-2.71-7.67-6.64-10.17-11.78-2.5-5.14-3.75-11.27-3.75-18.41s1.28-13.52,3.85-18.74c2.57-5.21,6.07-9.24,10.49-12.1,4.42-2.85,9.42-4.28,14.99-4.28s10.28,1.36,14.56,4.07c4.28,2.71,7.67,6.64,10.17,11.78,2.5,5.14,3.75,11.28,3.75,18.41s-1.28,13.35-3.85,18.63Z"/><path d="M152.45,191.63c-5.57-3.14-11.78-4.71-18.63-4.71-5.28,0-10.64,1-16.06,3-5.43,2-10.42,5.03-14.99,9.1-2.52,2.25-4.76,4.89-6.71,7.9-.19-.42-.37-.86-.57-1.26-3.14-6.35-7.49-11.06-13.06-14.13-5.57-3.07-11.78-4.6-18.63-4.6-5.43,0-10.64,1-15.63,3-5,2-9.49,5.03-13.49,9.1-1.73,1.77-3.3,3.78-4.71,6.02v-15.54H5.14v107.06h24.84v-59.1c0-6.14,1.21-11.2,3.64-15.2,2.43-3.99,5.53-6.99,9.31-8.99,3.78-2,7.81-3,12.1-3,5.71,0,10.52,1.93,14.45,5.78,3.92,3.85,5.89,10.35,5.89,19.48v61.02h24.84v-59.1c0-6.14,1.21-11.2,3.64-15.2,2.43-3.99,5.57-6.99,9.42-8.99,3.85-2,7.85-3,11.99-3,5.71,0,10.56,1.93,14.56,5.78,3.99,3.85,5.99,10.35,5.99,19.48v61.02h24.84v-65.31c0-10.28-1.64-18.66-4.93-25.16-3.29-6.49-7.71-11.31-13.28-14.45Z"/><path d="M283.06,263.79v-38.11c0-9.56-1.79-17.2-5.35-22.91-3.57-5.71-8.64-9.78-15.2-12.2-6.57-2.43-14.49-3.64-23.77-3.64-16.99,0-29.69,3.78-38.11,11.35-2.71,2.14-4.6,4.32-5.67,6.53-1.07,2.22-1.61,4.39-1.61,6.53,0,3,.96,5.35,2.89,7.07,1.93,1.71,4.46,2.57,7.6,2.57,2.57,0,4.82-.64,6.74-1.93,1.93-1.28,4.03-2.85,6.32-4.71,2.28-1.85,5.14-3.46,8.56-4.82,3.43-1.36,7.85-2.03,13.28-2.03,5.85,0,10.52,1.11,14.02,3.32,3.5,2.21,5.25,6.25,5.25,12.1v.64c0,2.86-.93,5-2.78,6.42-1.86,1.43-5.78,2.71-11.78,3.86l-20.55,3.64c-10.85,2-19.02,5.5-24.52,10.49-5.5,5-8.24,11.78-8.24,20.34,0,9.56,3.07,17.09,9.21,22.59,6.14,5.5,14.35,8.24,24.62,8.24,8.56,0,16.23-2.14,23.02-6.42,5.28-3.33,9.44-8.11,12.51-14.3.19,3.18.48,6.18.87,8.95.57,4,1.36,7.07,2.35,9.21h25.05c-1.43-3.57-2.57-8.14-3.43-13.7-.86-5.57-1.29-11.92-1.29-19.06ZM245.37,277.71c-3.85,2.14-8.06,3.21-12.63,3.21-4.85,0-8.78-1.32-11.77-3.96-3-2.64-4.5-6.24-4.5-10.81s1.5-8.21,4.5-10.49c3-2.28,6.85-3.86,11.56-4.71l13.28-2.78c3.71-.86,6.46-1.71,8.24-2.57,1.78-.86,3.1-1.71,3.96-2.57v11.13c0,5.43-1.14,10.17-3.43,14.24-2.28,4.07-5.35,7.17-9.21,9.31Z"/><path d="M340.23,170.22l-32.76,17.56c-3.28,1.71-5.78,3.64-7.49,5.78-1.71,2.14-2.57,4.64-2.57,7.49,0,3.29,1.03,5.85,3.1,7.71,2.07,1.86,4.74,2.78,8.03,2.78h6.85v53.1c0,11.42,2.71,20.02,8.14,25.8,5.42,5.78,13.13,8.67,23.12,8.67,4.14,0,7.99-.39,11.56-1.18,3.57-.79,6.99-1.89,10.28-3.32v-20.34c-2.57.86-5,1.57-7.28,2.14-2.28.57-4.64.86-7.07.86-4.57,0-8.03-1.25-10.38-3.75-2.36-2.5-3.53-6.74-3.53-12.74v-49.25h32.55v-22.05h-32.55v-19.27Z"/><path d="M403.82,145.38c-5,0-8.78,1.28-11.35,3.85-2.57,2.57-3.85,5.93-3.85,10.06s1.28,7.28,3.85,9.85c2.57,2.57,6.35,3.85,11.35,3.85s8.99-1.28,11.56-3.85c2.57-2.57,3.85-5.85,3.85-9.85s-1.28-7.49-3.85-10.06c-2.57-2.57-6.42-3.85-11.56-3.85Z"/><path d="M391.4,189.06v107.49h24.84v-107.49c-8.28,1.86-16.56,1.86-24.84,0Z"/><path d="M531.86,276.21c-3.14-.71-6.64-2.68-10.49-5.89-3.86-3.21-8.56-8.17-14.13-14.88-3.35-4.04-7.25-8.92-11.69-14.61l34.81-30.14c2.28-2.14,4.03-4.21,5.25-6.21,1.21-2,1.82-4.21,1.82-6.64,0-3.14-1-5.74-3-7.81-2-2.07-4.64-3.1-7.92-3.1-2.43,0-4.78.61-7.07,1.82-2.28,1.21-4.78,3.1-7.5,5.67l-40.04,37.9v-89.93h-24.84v154.16h24.84v-45.48c4.44,5.96,8.51,11.31,12.2,16.04,5.85,7.49,11.24,13.56,16.17,18.2,4.93,4.64,9.71,8,14.35,10.06,4.64,2.07,9.53,3.1,14.67,3.1,2.28,0,4.53-.18,6.75-.54,2.21-.36,4.31-.96,6.32-1.82v-19.91c-3.86.72-7.35.72-10.49,0Z"/><path d="M625.53,240.98c-4.5-2.35-9.31-4.28-14.45-5.78-5.14-1.5-9.96-2.92-14.45-4.28-4.5-1.35-8.21-3.1-11.13-5.25-2.93-2.14-4.39-4.99-4.39-8.56s1.43-6.49,4.28-9.21c2.85-2.71,7.35-4.07,13.49-4.07,4.57,0,8.28.72,11.13,2.14,2.85,1.43,5.28,3.03,7.28,4.82,2,1.79,3.92,3.39,5.78,4.82,1.85,1.43,4.07,2.14,6.64,2.14,2.71,0,4.85-.82,6.42-2.46,1.57-1.64,2.35-3.89,2.35-6.74,0-4.14-1.57-7.82-4.71-11.03-3.14-3.21-7.6-5.78-13.38-7.71-5.78-1.93-12.6-2.89-20.45-2.89-9.85,0-18.09,1.5-24.73,4.5-6.64,3-11.64,7.07-14.99,12.2-3.36,5.14-5.03,10.92-5.03,17.34s1.43,11.38,4.28,15.31c2.85,3.93,6.56,6.99,11.13,9.21,4.57,2.21,9.38,4.07,14.45,5.57,5.06,1.5,9.88,2.93,14.45,4.28,4.57,1.36,8.31,3.1,11.24,5.25,2.92,2.14,4.39,5,4.39,8.56s-1.53,6.64-4.6,9.21c-3.07,2.57-7.96,3.85-14.67,3.85-6.28,0-12.99-1.32-20.13-3.96-7.14-2.64-14.2-6.32-21.2-11.03v21.62c4.99,3,10.88,5.46,17.66,7.39,6.78,1.93,14.31,2.89,22.59,2.89,10.42,0,19.02-1.43,25.8-4.28,6.78-2.85,11.88-6.81,15.31-11.88,3.43-5.07,5.14-10.74,5.14-17.02s-1.46-11.6-4.39-15.52c-2.93-3.92-6.64-7.07-11.13-9.42Z"/><path d="M677.88,269.57c-5,0-8.85,1.36-11.56,4.07-2.71,2.71-4.07,6.28-4.07,10.71s1.35,7.78,4.07,10.49c2.71,2.71,6.56,4.07,11.56,4.07s8.85-1.36,11.56-4.07c2.71-2.71,4.07-6.21,4.07-10.49s-1.36-7.99-4.07-10.71c-2.71-2.71-6.57-4.07-11.56-4.07Z"/><path d="M720.06,189.06v107.49h24.84v-107.49c-8.28,1.86-16.56,1.86-24.84,0Z"/><path d="M732.48,145.38c-5,0-8.78,1.28-11.35,3.85-2.57,2.57-3.85,5.93-3.85,10.06s1.28,7.28,3.85,9.85c2.57,2.57,6.35,3.85,11.35,3.85s8.99-1.28,11.56-3.85,3.85-5.85,3.85-9.85-1.28-7.49-3.85-10.06-6.42-3.85-11.56-3.85Z"/><path d="M868.44,212.72c-4.57-8.21-10.92-14.56-19.06-19.06-8.14-4.5-17.63-6.74-28.48-6.74s-21.06,2.39-29.33,7.17c-8.28,4.78-14.67,11.42-19.16,19.91-4.5,8.49-6.75,18.45-6.75,29.87s2.28,21.06,6.85,29.33c4.57,8.28,10.95,14.67,19.16,19.16,8.21,4.5,17.66,6.75,28.37,6.75,11.42,0,21.23-2.39,29.44-7.17,8.21-4.78,14.56-11.45,19.06-20.02,4.5-8.56,6.74-18.48,6.74-29.76s-2.28-21.23-6.85-29.44ZM845.53,261.22c-2.57,5.28-6.07,9.35-10.49,12.2-4.43,2.86-9.42,4.28-14.99,4.28s-10.28-1.36-14.56-4.07c-4.28-2.71-7.67-6.64-10.17-11.78-2.5-5.14-3.75-11.27-3.75-18.41s1.29-13.52,3.86-18.74c2.57-5.21,6.06-9.24,10.49-12.1,4.42-2.85,9.42-4.28,14.99-4.28s10.28,1.36,14.56,4.07c4.28,2.71,7.67,6.64,10.17,11.78,2.5,5.14,3.75,11.28,3.75,18.41s-1.28,13.35-3.85,18.63Z"/></g></svg>