<?xml version="1.0" encoding="UTF-8"?><svg id="Ebene_2" xmlns="http://www.w3.org/2000/svg" viewBox="0 0 876.89 104.88"><g id="Ebene_1-2"><path d="M62.19,81.24v-25.51c0-6.4-1.2-11.51-3.58-15.33-2.39-3.82-5.78-6.54-10.17-8.17-4.4-1.62-9.7-2.44-15.9-2.44-11.37,0-19.87,2.53-25.5,7.59-1.82,1.43-3.08,2.89-3.8,4.37-.72,1.48-1.07,2.94-1.07,4.37,0,2.01.64,3.58,1.93,4.73,1.29,1.15,2.98,1.72,5.09,1.72,1.72,0,3.22-.43,4.51-1.29s2.7-1.91,4.23-3.15c1.53-1.24,3.44-2.31,5.73-3.22,2.29-.91,5.25-1.36,8.88-1.36,3.92,0,7.04.74,9.39,2.22,2.34,1.48,3.51,4.18,3.51,8.1v.43c0,1.91-.62,3.34-1.86,4.3-1.24.96-3.87,1.82-7.88,2.58l-13.76,2.43c-7.26,1.34-12.73,3.68-16.41,7.02-3.68,3.34-5.52,7.88-5.52,13.61,0,6.4,2.05,11.44,6.16,15.12,4.11,3.68,9.6,5.52,16.48,5.52,5.73,0,10.86-1.43,15.4-4.3,3.53-2.23,6.31-5.43,8.37-9.57.13,2.13.32,4.13.58,5.99.38,2.68.91,4.73,1.58,6.16h16.76c-.96-2.39-1.72-5.44-2.29-9.17-.57-3.73-.86-7.97-.86-12.75ZM36.97,90.56c-2.58,1.43-5.4,2.15-8.45,2.15-3.25,0-5.88-.88-7.88-2.65-2.01-1.77-3.01-4.18-3.01-7.24s1-5.49,3.01-7.02c2.01-1.53,4.59-2.58,7.74-3.15l8.88-1.86c2.48-.57,4.32-1.15,5.52-1.72,1.19-.57,2.08-1.15,2.65-1.72v7.45c0,3.63-.77,6.81-2.29,9.53-1.53,2.72-3.58,4.8-6.16,6.23Z"/><path d="M126.23,72.65c0,5.73-1.36,10.05-4.08,12.97-2.72,2.91-6.62,4.37-11.68,4.37s-8.84-1.46-11.61-4.37c-2.77-2.91-4.15-7.24-4.15-12.97V31.52h-16.62v41.26c0,10.6,2.82,18.61,8.45,24,5.63,5.4,13.61,8.1,23.93,8.1s18.41-2.7,24-8.1c5.59-5.4,8.38-13.4,8.38-24V31.52h-16.62v41.12Z"/><path d="M179.96,18.63l-21.92,11.75c-2.2,1.15-3.87,2.44-5.02,3.87-1.15,1.43-1.72,3.1-1.72,5.01,0,2.2.69,3.92,2.08,5.16,1.38,1.24,3.17,1.86,5.37,1.86h4.59v35.53c0,7.64,1.81,13.4,5.44,17.27,3.63,3.87,8.79,5.8,15.47,5.8,2.77,0,5.35-.26,7.74-.79,2.39-.53,4.68-1.26,6.88-2.22v-13.61c-1.72.57-3.34,1.05-4.87,1.43-1.53.38-3.11.57-4.73.57-3.06,0-5.37-.84-6.95-2.51-1.58-1.67-2.36-4.51-2.36-8.53v-32.95h21.78v-14.76h-21.78v-12.9Z"/><path d="M263.5,34.32c-5.44-3.01-11.8-4.51-19.06-4.51s-14.09,1.6-19.63,4.8c-5.54,3.2-9.81,7.64-12.82,13.33-3.01,5.68-4.51,12.35-4.51,19.99s1.53,14.09,4.59,19.63c3.06,5.54,7.33,9.81,12.82,12.82,5.49,3.01,11.82,4.51,18.98,4.51,7.64,0,14.21-1.6,19.7-4.8,5.49-3.2,9.74-7.67,12.75-13.4,3.01-5.73,4.51-12.37,4.51-19.92s-1.53-14.21-4.59-19.7c-3.06-5.49-7.31-9.74-12.75-12.75ZM260.92,79.52c-1.72,3.53-4.06,6.26-7.02,8.17-2.96,1.91-6.3,2.86-10.03,2.86s-6.88-.91-9.74-2.72c-2.87-1.81-5.14-4.44-6.81-7.88-1.67-3.44-2.51-7.54-2.51-12.32s.86-9.05,2.58-12.54c1.72-3.49,4.06-6.18,7.02-8.1,2.96-1.91,6.3-2.87,10.03-2.87s6.88.91,9.74,2.72c2.87,1.82,5.13,4.44,6.81,7.88,1.67,3.44,2.51,7.55,2.51,12.32s-.86,8.93-2.58,12.47Z"/><path d="M393.17,32.96c-3.73-2.1-7.88-3.15-12.47-3.15-3.54,0-7.12.67-10.75,2.01-3.63,1.34-6.97,3.37-10.03,6.09-1.69,1.5-3.18,3.27-4.49,5.29-.13-.28-.24-.57-.38-.85-2.1-4.25-5.02-7.4-8.74-9.46-3.73-2.05-7.88-3.08-12.47-3.08-3.63,0-7.12.67-10.46,2.01-3.35,1.34-6.35,3.37-9.03,6.09-1.16,1.18-2.21,2.53-3.15,4.03v-10.4h-16.62v71.64h16.62v-39.55c0-4.11.81-7.5,2.44-10.17,1.62-2.67,3.7-4.68,6.23-6.02,2.53-1.34,5.23-2.01,8.1-2.01,3.82,0,7.04,1.29,9.67,3.87,2.63,2.58,3.94,6.93,3.94,13.04v40.84h16.62v-39.55c0-4.11.81-7.5,2.44-10.17,1.62-2.67,3.73-4.68,6.3-6.02,2.58-1.34,5.25-2.01,8.02-2.01,3.82,0,7.07,1.29,9.74,3.87,2.67,2.58,4.01,6.93,4.01,13.04v40.84h16.62v-43.7c0-6.88-1.1-12.49-3.3-16.84-2.2-4.35-5.16-7.57-8.88-9.67Z"/><path d="M480.57,81.24v-25.51c0-6.4-1.19-11.51-3.58-15.33-2.39-3.82-5.78-6.54-10.17-8.17-4.4-1.62-9.7-2.44-15.9-2.44-11.37,0-19.87,2.53-25.5,7.59-1.82,1.43-3.08,2.89-3.8,4.37-.72,1.48-1.07,2.94-1.07,4.37,0,2.01.64,3.58,1.93,4.73,1.29,1.15,2.98,1.72,5.09,1.72,1.72,0,3.22-.43,4.51-1.29,1.29-.86,2.7-1.91,4.23-3.15,1.53-1.24,3.44-2.31,5.73-3.22,2.29-.91,5.25-1.36,8.88-1.36,3.91,0,7.04.74,9.38,2.22,2.34,1.48,3.51,4.18,3.51,8.1v.43c0,1.91-.62,3.34-1.86,4.3-1.24.96-3.87,1.82-7.88,2.58l-13.75,2.43c-7.26,1.34-12.73,3.68-16.41,7.02-3.68,3.34-5.52,7.88-5.52,13.61,0,6.4,2.05,11.44,6.16,15.12,4.11,3.68,9.6,5.52,16.48,5.52,5.73,0,10.86-1.43,15.4-4.3,3.53-2.23,6.32-5.43,8.37-9.57.13,2.13.32,4.13.58,5.99.38,2.68.91,4.73,1.58,6.16h16.76c-.96-2.39-1.72-5.44-2.29-9.17-.57-3.73-.86-7.97-.86-12.75ZM455.35,90.56c-2.58,1.43-5.4,2.15-8.45,2.15-3.25,0-5.87-.88-7.88-2.65-2.01-1.77-3.01-4.18-3.01-7.24s1-5.49,3.01-7.02c2.01-1.53,4.58-2.58,7.74-3.15l8.88-1.86c2.48-.57,4.32-1.15,5.52-1.72,1.19-.57,2.08-1.15,2.65-1.72v7.45c0,3.63-.77,6.81-2.29,9.53-1.53,2.72-3.58,4.8-6.16,6.23Z"/><path d="M518.83,18.63l-21.92,11.75c-2.2,1.15-3.87,2.44-5.01,3.87-1.15,1.43-1.72,3.1-1.72,5.01,0,2.2.69,3.92,2.08,5.16,1.38,1.24,3.18,1.86,5.37,1.86h4.59v35.53c0,7.64,1.81,13.4,5.44,17.27,3.63,3.87,8.79,5.8,15.47,5.8,2.77,0,5.35-.26,7.74-.79,2.39-.53,4.68-1.26,6.88-2.22v-13.61c-1.72.57-3.34,1.05-4.87,1.43-1.53.38-3.1.57-4.73.57-3.06,0-5.37-.84-6.95-2.51-1.58-1.67-2.36-4.51-2.36-8.53v-32.95h21.78v-14.76h-21.78v-12.9Z"/><path d="M561.38,2.01c-3.35,0-5.88.86-7.59,2.58s-2.58,3.97-2.58,6.73.86,4.87,2.58,6.59,4.25,2.58,7.59,2.58,6.02-.86,7.74-2.58,2.58-3.92,2.58-6.59-.86-5.02-2.58-6.73-4.3-2.58-7.74-2.58Z"/><path d="M553.07,31.24v71.93h16.62V31.24c-5.54,1.24-11.08,1.24-16.62,0Z"/><path d="M647.06,89.55c-2.1-.48-4.44-1.79-7.02-3.94-2.58-2.15-5.73-5.47-9.46-9.96-2.24-2.7-4.85-5.97-7.82-9.78l23.3-20.17c1.53-1.43,2.7-2.82,3.51-4.15.81-1.34,1.22-2.82,1.22-4.44,0-2.1-.67-3.84-2.01-5.23-1.34-1.38-3.1-2.08-5.3-2.08-1.63,0-3.2.41-4.73,1.22-1.53.81-3.2,2.08-5.02,3.8l-26.79,25.36V0h-16.62v103.16h16.62v-30.44c2.97,3.99,5.69,7.57,8.17,10.74,3.92,5.01,7.52,9.08,10.82,12.18,3.3,3.11,6.5,5.35,9.6,6.73,3.1,1.38,6.38,2.08,9.81,2.08,1.53,0,3.03-.12,4.51-.36,1.48-.24,2.89-.64,4.23-1.22v-13.33c-2.58.48-4.92.48-7.02,0Z"/><path d="M709.75,65.98c-3.01-1.58-6.23-2.86-9.67-3.87s-6.66-1.96-9.67-2.87c-3.01-.91-5.49-2.08-7.45-3.51-1.96-1.43-2.94-3.34-2.94-5.73s.95-4.35,2.87-6.16c1.91-1.81,4.92-2.72,9.03-2.72,3.06,0,5.54.48,7.45,1.43,1.91.96,3.53,2.03,4.87,3.22,1.34,1.2,2.63,2.27,3.87,3.22,1.24.96,2.72,1.43,4.44,1.43,1.81,0,3.25-.55,4.3-1.65,1.05-1.1,1.58-2.6,1.58-4.51,0-2.77-1.05-5.23-3.15-7.38-2.1-2.15-5.09-3.87-8.96-5.16-3.87-1.29-8.43-1.93-13.68-1.93-6.59,0-12.11,1-16.55,3.01s-7.79,4.73-10.03,8.17c-2.25,3.44-3.37,7.31-3.37,11.61s.95,7.62,2.87,10.24c1.91,2.63,4.39,4.68,7.45,6.16,3.06,1.48,6.28,2.72,9.67,3.73,3.39,1,6.61,1.96,9.67,2.86,3.06.91,5.56,2.08,7.52,3.51,1.96,1.43,2.94,3.34,2.94,5.73s-1.03,4.44-3.08,6.16c-2.06,1.72-5.33,2.58-9.81,2.58-4.2,0-8.69-.88-13.47-2.65-4.78-1.77-9.51-4.23-14.18-7.38v14.47c3.34,2.01,7.28,3.65,11.82,4.94,4.54,1.29,9.58,1.93,15.12,1.93,6.97,0,12.73-.96,17.27-2.87,4.54-1.91,7.95-4.56,10.24-7.95,2.29-3.39,3.44-7.19,3.44-11.39s-.98-7.76-2.94-10.39c-1.96-2.63-4.44-4.73-7.45-6.31Z"/><path d="M744.78,85.11c-3.34,0-5.92.91-7.74,2.72-1.82,1.82-2.72,4.2-2.72,7.16s.91,5.21,2.72,7.02c1.81,1.81,4.39,2.72,7.74,2.72s5.92-.91,7.74-2.72c1.81-1.81,2.72-4.15,2.72-7.02s-.91-5.35-2.72-7.16c-1.82-1.81-4.39-2.72-7.74-2.72Z"/><path d="M773.01,31.24v71.93h16.62V31.24c-5.54,1.24-11.08,1.24-16.62,0Z"/><path d="M781.32,2.01c-3.35,0-5.88.86-7.59,2.58s-2.58,3.97-2.58,6.73.86,4.87,2.58,6.59,4.25,2.58,7.59,2.58,6.02-.86,7.74-2.58,2.58-3.92,2.58-6.59-.86-5.02-2.58-6.73-4.3-2.58-7.74-2.58Z"/><path d="M872.3,47.07c-3.06-5.49-7.31-9.74-12.75-12.75-5.44-3.01-11.8-4.51-19.06-4.51s-14.09,1.6-19.63,4.8c-5.54,3.2-9.81,7.64-12.82,13.33-3.01,5.68-4.51,12.35-4.51,19.99s1.53,14.09,4.59,19.63c3.06,5.54,7.33,9.81,12.82,12.82,5.49,3.01,11.82,4.51,18.98,4.51,7.64,0,14.21-1.6,19.7-4.8,5.49-3.2,9.74-7.67,12.75-13.4,3.01-5.73,4.51-12.37,4.51-19.92s-1.53-14.21-4.58-19.7ZM856.97,79.52c-1.72,3.53-4.06,6.26-7.02,8.17-2.96,1.91-6.31,2.86-10.03,2.86s-6.88-.91-9.74-2.72c-2.87-1.81-5.14-4.44-6.81-7.88-1.67-3.44-2.51-7.54-2.51-12.32s.86-9.05,2.58-12.54c1.72-3.49,4.06-6.18,7.02-8.1,2.96-1.91,6.3-2.87,10.03-2.87s6.88.91,9.74,2.72c2.86,1.82,5.13,4.44,6.81,7.88,1.67,3.44,2.51,7.55,2.51,12.32s-.86,8.93-2.58,12.47Z"/></g></svg>